<svg id="undraw_Directions_re_kjxs" xmlns="http://www.w3.org/2000/svg" width="726" height="597.692" viewBox="0 0 726 597.692">
  <path id="Path_1962" data-name="Path 1962" d="M900.743,695.54c-7.51,25.086,4.145,50.734,4.145,50.734s23.832-15.024,31.342-40.11-4.145-50.735-4.145-50.735S908.253,670.454,900.743,695.54Z" transform="translate(-237 -151.154)" fill="#f2f2f2"/>
  <path id="Path_1963" data-name="Path 1963" d="M912.146,696.219c6.321,25.412-6.529,50.483-6.529,50.483s-23.1-16.13-29.418-41.542,6.529-50.483,6.529-50.483S905.825,670.807,912.146,696.219Z" transform="translate(-237 -151.154)" fill="#f2f2f2"/>
  <path id="Path_1964" data-name="Path 1964" d="M294.743,696.54c-7.51,25.086,4.145,50.734,4.145,50.734s23.832-15.024,31.342-40.11-4.145-50.735-4.145-50.735S302.253,671.454,294.743,696.54Z" transform="translate(-237 -151.154)" fill="#e6e6e6"/>
  <path id="Path_1965" data-name="Path 1965" d="M306.146,697.219c6.321,25.412-6.529,50.483-6.529,50.483s-23.1-16.13-29.418-41.542,6.529-50.483,6.529-50.483S299.825,671.807,306.146,697.219Z" transform="translate(-237 -151.154)" fill="#e6e6e6"/>
  <circle id="Ellipse_265" data-name="Ellipse 265" cx="53.519" cy="53.519" r="53.519" transform="translate(282.483 202.884)" fill="#ff8f99"/>
  <path id="Path_1966" data-name="Path 1966" d="M570.569,746.9H555.81a6.507,6.507,0,0,1-6.5-6.5V617.389a6.508,6.508,0,0,1,6.5-6.5h14.759a6.508,6.508,0,0,1,6.5,6.5V740.4a6.507,6.507,0,0,1-6.5,6.5Z" transform="translate(-237 -151.154)" fill="#ff8f99"/>
  <path id="Path_1967" data-name="Path 1967" d="M612.125,547.62,605.362,534.5a6.508,6.508,0,0,1,2.8-8.756L717.5,469.374a6.508,6.508,0,0,1,8.756,2.8l6.763,13.118a6.508,6.508,0,0,1-2.8,8.756L620.881,550.419A6.508,6.508,0,0,1,612.125,547.62Z" transform="translate(-237 -151.154)" fill="#ff8f99"/>
  <path id="Path_1968" data-name="Path 1968" d="M649.94,680.924l-12.006,8.585A6.507,6.507,0,0,1,628.866,688L557.317,587.936a6.507,6.507,0,0,1,1.507-9.068l12.006-8.585a6.508,6.508,0,0,1,9.068,1.507l71.548,100.066A6.508,6.508,0,0,1,649.94,680.924Z" transform="translate(-237 -151.154)" fill="#ff8f99"/>
  <path id="Path_1969" data-name="Path 1969" d="M611.176,746.04l-13.213-6.578c-3.208-1.6-5.012-4.518-4.019-6.511L628,664.551c.992-1.993,4.41-2.315,7.618-.717l13.213,6.578c3.208,1.6,5.012,4.518,4.019,6.511l-34.053,68.4C617.8,747.315,614.384,747.637,611.176,746.04Z" transform="translate(-237 -151.154)" fill="#ff8f99"/>
  <path id="Path_1970" data-name="Path 1970" d="M610.828,427.35l-.056-2c3.721-.1,7-.337,9.466-2.138a6.148,6.148,0,0,0,2.381-4.528,3.514,3.514,0,0,0-1.153-2.895c-1.636-1.383-4.269-.936-6.188-.055l-1.655.759L616.8,393.3l1.981.271-2.7,19.726c2.608-.767,5.023-.437,6.678.961a5.471,5.471,0,0,1,1.86,4.492,8.133,8.133,0,0,1-3.2,6.073C618.251,427.142,614.135,427.257,610.828,427.35Z" transform="translate(-237 -151.154)" fill="#2f2e41"/>
  <rect id="Rectangle_3110" data-name="Rectangle 3110" width="10.771" height="2" transform="translate(357.578 244.121)" fill="#2f2e41"/>
  <path id="Path_1971" data-name="Path 1971" d="M658.165,590.154c0,43.63-41.37,40-85,40s-73,3.63-73-40,29.37-118,73-118S658.165,546.524,658.165,590.154Z" transform="translate(-237 -151.154)" fill="#ccc"/>
  <path id="Path_1972" data-name="Path 1972" d="M604.637,350.885c-2-11.916-9.547-22.159-19.259-29.074a55.109,55.109,0,0,0-32.519-9.942c-22.493.247-44.487,12.846-56.546,31.75-13.36,20.943-13.624,48.293-4.592,70.937a87.821,87.821,0,0,0,8.732,16.611c3.877,5.745,8.574,10.813,13.142,16,8.513,9.669,18.274,23.117,12.569,36.609-2.107,4.983-6.552,9.514-12.209,9.871-4.775.3-10.07-1.983-12.187-6.471-2.372-5.029.912-10.98,5.764-13.039,5.089-2.159,10.379,1.026,12.258,5.924a9.517,9.517,0,0,1,.089,7.061,1.554,1.554,0,0,0,.538,2.052,1.509,1.509,0,0,0,2.052-.538,13.418,13.418,0,0,0-3.362-14.848,11.877,11.877,0,0,0-15.313-.947c-4.756,3.474-7.271,9.692-4.861,15.3,2.087,4.858,7.136,7.792,12.235,8.411a16.372,16.372,0,0,0,14.748-6.53,23.93,23.93,0,0,0,4.754-17.271C529,457.4,516.734,446.9,507.526,435.668a84.878,84.878,0,0,1-16.869-34.528,78.317,78.317,0,0,1,.323-37.781,64.185,64.185,0,0,1,18.336-30.626,67.885,67.885,0,0,1,30.245-16.205,56.241,56.241,0,0,1,33.69,2.05c11.273,4.472,21.278,13.321,26.045,24.589a37.982,37.982,0,0,1,2.448,8.516c.319,1.9,3.21,1.094,2.893-.8Z" transform="translate(-237 -151.154)" fill="#2f2e41"/>
  <path id="Path_1973" data-name="Path 1973" d="M604.572,351.336c5.009-4.826,13.174-5.521,19.209-2.253,6.242,3.381,8.747,10.663,7.146,17.4a15.73,15.73,0,0,1-6.111,9.362c-1.573,1.1-.076,3.7,1.514,2.59,6.753-4.7,9.6-13.759,7.291-21.6-2.406-8.182-10.4-13.066-18.744-12.741a18.874,18.874,0,0,0-12.426,5.115c-1.393,1.342.73,3.462,2.121,2.121Z" transform="translate(-237 -151.154)" fill="#2f2e41"/>
  <path id="Path_1974" data-name="Path 1974" d="M560.757,531.844l8.282-12.217a6.508,6.508,0,0,1,9.028-1.733l101.823,69.027a6.508,6.508,0,0,1,1.733,9.028l-8.282,12.217a6.507,6.507,0,0,1-9.028,1.733L562.49,540.872A6.508,6.508,0,0,1,560.757,531.844Z" transform="translate(-237 -151.154)" fill="#ff8f99"/>
  <path id="Path_1975" data-name="Path 1975" d="M508.148,327.888Z" fill="#3a3768"/>
  <path id="Path_1976" data-name="Path 1976" d="M502.219,336.2Z" fill="#3a3768"/>
  <path id="Path_1977" data-name="Path 1977" d="M752.3,468.739a14.956,14.956,0,0,0-2.79-9.913L723.35,440.158a4.644,4.644,0,0,0-6.478,1.083l-3.761,5.271c-.014-.014-.013-.036-.03-.048a.35.35,0,0,0-.488.082l-1.541,2.16a.35.35,0,0,0,.082.488c.016.012.037,0,.055.013l-1.662,2.329a.357.357,0,0,0-.033-.035.387.387,0,0,0-.54.09l-2.944,4.125a.387.387,0,0,0,.09.54.373.373,0,0,0,.044.02l-1.194,1.674c-.009-.007-.013-.018-.023-.024a.369.369,0,0,0-.514.086l-3,4.2a.369.369,0,0,0,.086.514c.009.006.021.008.03.014l-28.171,39.479a14.956,14.956,0,0,0,2.791,9.913L702.313,530.8a4.644,4.644,0,0,0,6.477-1.083l30.315-42.485a.582.582,0,0,0,.113.121.622.622,0,0,0,.866-.151l5.2-7.29a.622.622,0,0,0-.139-.869.578.578,0,0,0-.151-.067Z" transform="translate(-237 -151.154)" fill="#3a3768"/>
  <path id="Path_1978" data-name="Path 1978" d="M747.149,459.935l-3.852-2.764-.332.461a2.691,2.691,0,0,1-3.686.645l-12.31-8.79a2.709,2.709,0,0,1-.627-3.778l.332-.461-3.686-2.58a3.28,3.28,0,0,0-4.579.742l-.009.013L675.87,503.038a3.3,3.3,0,0,0,.756,4.589l24.214,17.267a3.28,3.28,0,0,0,4.577-.757l.012-.017,42.532-59.6a3.28,3.28,0,0,0-.786-4.572Z" transform="translate(-237 -151.154)" fill="#f2f2f2"/>
  <path id="Path_1979" data-name="Path 1979" d="M732.186,449.576l3.75,2.676a.59.59,0,0,1,.138.823h0a.59.59,0,0,1-.823.138l-3.75-2.676a.59.59,0,0,1-.138-.823h0A.59.59,0,0,1,732.186,449.576Z" transform="translate(-237 -151.154)" fill="#e6e8ec"/>
  <circle id="Ellipse_266" data-name="Ellipse 266" cx="0.663" cy="0.663" r="0.663" transform="translate(499.572 302.203)" fill="#e6e8ec"/>
  <path id="Path_1980" data-name="Path 1980" d="M722.174,151.154a67,67,0,0,0-67,67h0c0,37,70.2,173.5,70.2,173.5s63.8-136.48,63.8-173.49a67,67,0,0,0-67-67.01Zm0,111.68a35.1,35.1,0,1,1,35.1-35.1h0A35.1,35.1,0,0,1,722.174,262.834Z" transform="translate(-237 -151.154)" fill="#ff8f99"/>
  <rect id="Rectangle_3111" data-name="Rectangle 3111" width="726" height="2" transform="translate(0 595.692)" fill="#3f3d56"/>
</svg>
